<svg height="512" width="512" xmlns="http://www.w3.org/2000/svg"><path d="M0 300L61.3 51.41C62.95 44.71 68.96 40 75.86 40h360.27c6.9 0 12.91 4.71 14.56 11.41L512 300c0 8.84-7.16 16-16 16H16c-8.84 0-16-7.16-16-16z" fill="#ffb454"/><path d="M450.7 51.41A14.996 14.996 0 0 0 436.14 40H256v276h240c8.84 0 16-7.16 16-16z" fill="#ff7d47"/><path d="M356 130H156c-8.28 0-15-6.72-15-15V15c0-8.28 6.72-15 15-15h200c8.28 0 15 6.72 15 15v100c0 8.28-6.72 15-15 15z" fill="#fff5f5"/><path d="M356 0H256v130h100c8.28 0 15-6.72 15-15V15c0-8.28-6.72-15-15-15z" fill="#e2dff4"/><path d="M386 230H126c-8.28 0-15-6.72-15-15V115c0-8.28 6.72-15 15-15h260c8.28 0 15 6.72 15 15v100c0 8.28-6.72 15-15 15z" fill="#e2dff4"/><path d="M386 100H256v130h130c8.28 0 15-6.72 15-15V115c0-8.28-6.72-15-15-15z" fill="#d5d3ea"/><path d="M416 450H96c-8.28 0-15-6.72-15-15V215c0-8.28 6.72-15 15-15h320c8.28 0 15 6.72 15 15v220c0 8.28-6.72 15-15 15z" fill="#fff5f5"/><path d="M416 200H256v250h160c8.28 0 15-6.72 15-15V215c0-8.28-6.72-15-15-15z" fill="#e2dff4"/><path d="M497 512H15c-8.28 0-15-6.72-15-15V300h166c6.46 0 12.19 4.13 14.23 10.26L196.81 360h118.38l16.58-49.74A14.991 14.991 0 0 1 346 300h166v197c0 8.28-6.72 15-15 15z" fill="#ffe278"/><path d="M512 300H346c-6.46 0-12.19 4.13-14.23 10.26L315.19 360H256v152h241c8.28 0 15-6.72 15-15z" fill="#ffb454"/><path d="M326 450H186c-8.28 0-15-6.72-15-15s6.72-15 15-15h140c8.28 0 15 6.72 15 15s-6.72 15-15 15z" fill="#ffb454"/><path d="M326 420h-70v30h70c8.28 0 15-6.72 15-15s-6.72-15-15-15z" fill="#ff7d47"/></svg>