<svg height="512" viewBox="0 0 510 510" width="512" xmlns="http://www.w3.org/2000/svg"><path fill="#5e5e5e" d="M434.333 150H375V80c0-44.112-35.888-80-80-80h-5a79.51 79.51 0 0 0-35 8.079A79.51 79.51 0 0 0 220 0c-44.112 0-80 35.888-80 80v70H75.667L59.303 510h391.395zM294.346 28.791C321.916 28.791 345 52.43 345 80v70h-45V80c0-18.668-6.445-35.849-17.203-49.474 0 0 1.654-1.735 11.549-1.735zM255 44.338c9.249 9.079 15 21.709 15 35.662v70h-30V80c0-13.953 5.751-26.583 15-35.662zM170 80c0-27.57 22.43-50 50-50 2.446 0 4.849.185 7.203.526C216.445 44.151 210 61.332 210 80v70h-40zm-65.667 100H140v300H90.697zM170 480V180h40v30h30v-30h105v30h30v-30h30.667l13.636 300z"/></svg>