<svg xmlns="http://www.w3.org/2000/svg" width="30" height="23"><path fill="#5e5e5e" d="M.676 0H6.41c.31 0 .58.242.656.542l.969 3.863c.463-.392 1.052-.694 1.683-.694H27.33c1.448 0 2.67 1.314 2.67 2.793 0 .033-.002.13-.007.162l-1.33 9.017a.659.659 0 0 1-.018.086c-.473 1.644-1.294 2.255-1.979 2.467.373.497.597 1.102.597 1.77 0 1.642-1.34 2.962-2.986 2.962-1.646 0-2.986-1.368-2.986-3.01 0-.622.193-1.067.52-1.742h-6.225c.327.675.52 1.12.52 1.741 0 1.643-1.34 3.043-2.986 3.043a2.986 2.986 0 0 1-2.985-2.98c0-.661.22-1.273.588-1.769-1.291-.37-1.763-1.797-1.98-2.457a.711.711 0 0 1-.022-.093L7.059 6.675a.86.86 0 0 1-.01-.138c0-.126.011-.281.028-.403L5.883 1.349H.676A.676.676 0 1 1 .676 0zm14.078 20.021a1.633 1.633 0 0 0-3.267 0 1.633 1.633 0 0 0 3.267 0zm11.157 0a1.633 1.633 0 0 0-3.267 0 1.633 1.633 0 0 0 3.267 0zM8.439 6.172c-.002.023-.005.1-.01.121-.012.067-.025.119-.028.189l1.642 8.873c.437 1.311.837 1.512 1.337 1.512h14.622c.718 0 1.119-.802 1.33-1.52l1.316-8.887c-.024-.729-.618-1.4-1.317-1.4H9.718c-.608 0-1.135.515-1.279 1.112z"/></svg>