<svg height="512" viewBox="0 0 24 24" width="512" xmlns="http://www.w3.org/2000/svg"><path d="M21 24H3c-1.654 0-3-1.346-3-3v-4a1 1 0 1 1 2 0v4c0 .551.449 1 1 1h18c.551 0 1-.449 1-1v-4a1 1 0 1 1 2 0v4c0 1.654-1.346 3-3 3z" fill="#607d8b"/><path d="M16.707 12.707l-4 4a.999.999 0 0 1-1.414 0l-4-4A1.002 1.002 0 0 1 8 11h3V1a1 1 0 1 1 2 0v10h3a1 1 0 0 1 .707 1.707z" fill="#4caf50"/><path d="M1 16a1 1 0 0 0-1 1v4c0 1.654 1.346 3 3 3h9v-2H3c-.551 0-1-.449-1-1v-4a1 1 0 0 0-1-1z" fill="#546d79"/><path d="M12 0a1 1 0 0 0-1 1v10H8a1 1 0 0 0-.707 1.707l4 4A.997.997 0 0 0 12 17z" fill="#429846"/></svg>