<svg xmlns="http://www.w3.org/2000/svg" width="22" height="23"><path fill="#5e5e5e" d="M22 23h-1.472c-.284-3.64-2.704-6.69-6.035-7.971a8.196 8.196 0 0 1-3.493.784 8.198 8.198 0 0 1-3.493-.784c-3.33 1.28-5.75 4.331-6.035 7.97H0c.262-3.886 2.635-7.204 6.005-8.884-1.88-1.447-3.091-3.687-3.091-6.209C2.914 3.54 6.534 0 11 0s8.086 3.54 8.086 7.906c0 2.522-1.211 4.762-3.091 6.21C19.365 15.794 21.738 19.112 22 23zM17.616 7.906c0-3.573-2.962-6.469-6.616-6.469-3.654 0-6.616 2.896-6.616 6.47 0 3.572 2.962 6.468 6.616 6.468 3.654 0 6.616-2.896 6.616-6.469z"/></svg>