<svg height="512" width="512" xmlns="http://www.w3.org/2000/svg"><path d="M74.99 211.001a14.937 14.937 0 0 1-9.361-3.288c-6.469-5.175-7.518-14.614-2.342-21.083l120-150c5.175-6.469 14.614-7.519 21.083-2.342 6.469 5.175 7.518 14.614 2.342 21.083l-120 150a14.97 14.97 0 0 1-11.722 5.63z" fill="#596c76"/><path d="M437.01 211.001c-4.401 0-8.76-1.927-11.723-5.63l-120-150c-5.175-6.469-4.126-15.909 2.342-21.083 6.47-5.175 15.909-4.125 21.083 2.342l120 150c5.175 6.469 4.126 15.909-2.342 21.083a14.934 14.934 0 0 1-9.36 3.288z" fill="#465a61"/><path d="M407 481H105a15 15 0 0 1-14.423-10.879l-60-210A14.999 14.999 0 0 1 45 241h422a14.998 14.998 0 0 1 14.423 19.12l-60 210A15 15 0 0 1 407 481z" fill="#ff6c6c"/><path d="M467 241H256v240h151a15 15 0 0 0 14.423-10.879l60-210A14.999 14.999 0 0 0 467 241z" fill="#e63950"/><path d="M339.518 421.003c-.819 0-1.649-.067-2.484-.207-8.172-1.362-13.692-9.09-12.33-17.262l15-90c1.362-8.172 9.09-13.696 17.262-12.33 8.172 1.362 13.692 9.09 12.33 17.262l-15 90c-1.223 7.337-7.578 12.537-14.778 12.537z" fill="#ae2538"/><path d="M173.482 421.003c-7.201 0-13.555-5.199-14.778-12.537l-15-90c-1.362-8.171 4.158-15.9 12.33-17.262 8.173-1.361 15.9 4.158 17.262 12.33l15 90c1.362 8.171-4.158 15.9-12.33 17.262-.835.14-1.665.207-2.484.207zM497 271H15c-8.284 0-15-6.716-15-15v-60c0-8.284 6.716-15 15-15h482c8.284 0 15 6.716 15 15v60c0 8.285-6.716 15-15 15zM256 421c-8.284 0-15-6.716-15-15v-90c0-8.284 6.716-15 15-15s15 6.716 15 15v90c0 8.285-6.716 15-15 15z" fill="#e63950"/><path d="M497 271c8.284 0 15-6.716 15-15v-60c0-8.284-6.716-15-15-15H256v90zM271 406v-90c0-8.284-6.716-15-15-15v120c8.284 0 15-6.715 15-15z" fill="#ae2538"/></svg>