<svg height="512" viewBox="0 0 511.989 511.989" width="512" xmlns="http://www.w3.org/2000/svg"><path d="M470.994 330c0-24.146-17.205-44.348-40-48.994V227a15 15 0 0 0-20.267-14.045l-28.629 10.736a174.877 174.877 0 0 0-66.694-43.303c24.608-18.234 40.59-47.478 40.59-80.388 0-55.141-44.859-100-100-100s-100 44.859-100 100c0 32.91 15.982 62.154 40.59 80.388a174.892 174.892 0 0 0-66.694 43.303l-28.629-10.736A15 15 0 0 0 80.994 227v54.006c-22.795 4.646-40 24.847-40 48.994s17.205 44.348 40 48.994V437a15 15 0 0 0 9.733 14.045l160 60a15.17 15.17 0 0 0 10.533 0l160-60A15 15 0 0 0 430.993 437v-58.006c22.796-4.646 40.001-24.848 40.001-48.994zm-285-230c0-38.598 31.402-70 70-70s70 31.402 70 70-31.402 70-70 70-70-31.402-70-70zm70 100a144.772 144.772 0 0 1 94.899 35.393l-94.899 35.587-94.899-35.587A144.776 144.776 0 0 1 255.994 200zm-185 130c0-11.028 8.972-20 20-20h10v40h-10c-11.028 0-20-8.972-20-20zm40 49.497c11.397-2.323 20-12.424 20-24.497v-50c0-12.073-8.603-22.174-20-24.497v-31.858l130 48.75v177.961l-130-48.75zm160 95.858v-177.96l130-48.75v31.858c-11.397 2.323-20 12.424-20 24.497v50c0 12.073 8.603 22.174 20 24.497v47.108zm150-125.355h-10v-40h10c11.028 0 20 8.972 20 20s-8.971 20-20 20z"/></svg>