<svg xmlns="http://www.w3.org/2000/svg" viewBox="0 0 370 370"><path d="M366.85 71.242A15 15 0 0 0 355 65.44H97.836L87.698 37.929a15 15 0 0 0-14.075-9.813H15c-8.284 0-15 6.716-15 15 0 8.284 6.716 15 15 15h48.165l85.384 231.704a15 15 0 0 0 14.075 9.814h147.823c8.284 0 15-6.716 15-15 0-8.284-6.716-15-15-15H173.082l-13.572-36.829h160.319a14.999 14.999 0 0 0 14.531-11.279L369.531 84.16a15.002 15.002 0 0 0-2.681-12.918zm-104.415 81.899l-25.795 25.795a14.901 14.901 0 0 1-10.606 4.393 14.901 14.901 0 0 1-10.607-4.394l-25.792-25.794a14.898 14.898 0 0 1-4.394-10.606 14.9 14.9 0 0 1 4.394-10.607 14.91 14.91 0 0 1 10.607-4.393c4.007 0 7.773 1.56 10.606 4.394l.187.186V107.88c0-8.271 6.729-15 15-15s15 6.729 15 15v24.234l.188-.187c2.834-2.833 6.6-4.393 10.606-4.393s7.772 1.56 10.606 4.393c5.849 5.849 5.849 15.366 0 21.214zm-80.953 150.055c-10.687 0-19.347 8.658-19.347 19.344 0 10.686 8.66 19.344 19.347 19.344 10.686 0 19.347-8.659 19.347-19.344 0-10.686-8.66-19.344-19.347-19.344zm100.829 0c-10.686 0-19.347 8.658-19.347 19.344 0 10.686 8.66 19.344 19.347 19.344s19.342-8.659 19.342-19.344c0-10.686-8.655-19.344-19.342-19.344z"/></svg>